<svg id="RU_Download_on_the" xmlns="http://www.w3.org/2000/svg" viewBox="0 0 135 40"><style>.st0{fill:#a6a6a6}.st1{fill:#fff}</style><path class="st0" d="M130.2 40H4.7C2.1 40 0 37.9 0 35.3V4.7C0 2.1 2.1 0 4.7 0h125.5c2.6 0 4.8 2.1 4.8 4.7v30.5c0 2.7-2.2 4.8-4.8 4.8z"/><path d="M134 35.3c0 2.1-1.7 3.8-3.8 3.8H4.7c-2.1 0-3.8-1.7-3.8-3.8V4.7C.9 2.6 2.6.9 4.7.9h125.5c2.1 0 3.8 1.7 3.8 3.8v30.6z"/><path class="st1" d="M30.1 19.8c0-3.2 2.6-4.8 2.8-4.9-1.5-2.2-3.9-2.5-4.7-2.5-2-.2-3.9 1.2-4.9 1.2s-2.6-1.2-4.2-1.1c-2.1 0-4.1 1.3-5.2 3.2-2.3 3.9-.6 9.7 1.6 12.9 1.1 1.6 2.4 3.3 4 3.2s2.2-1 4.2-1c1.9 0 2.5 1 4.2 1s2.8-1.6 3.9-3.1c1.3-1.8 1.8-3.5 1.8-3.6-.1-.2-3.4-1.5-3.5-5.3zM26.9 10.3c.9-1.1 1.5-2.6 1.3-4.1-1.3.1-2.8.9-3.8 1.9-.8.9-1.5 2.5-1.3 3.9 1.5.2 2.9-.6 3.8-1.7zM53.6 31.5h-2.3l-1.2-3.9h-4.3l-1.2 3.9h-2.2l4.3-13.3h2.6l4.3 13.3zM49.8 26l-1.1-3.5c-.1-.4-.3-1.2-.7-2.5-.1.6-.3 1.4-.6 2.5L46.2 26h3.6zM64.7 26.6c0 1.6-.4 2.9-1.3 3.9-.8.8-1.8 1.3-2.9 1.3-1.3 0-2.2-.5-2.7-1.4v5.1h-2.1V25.1c0-1 0-2.1-.1-3.2h1.9l.1 1.5c.7-1.1 1.8-1.7 3.2-1.7 1.1 0 2.1.4 2.8 1.3.7.9 1.1 2.1 1.1 3.6zm-2.2.1c0-.9-.2-1.7-.6-2.3-.5-.6-1.1-.9-1.9-.9-.5 0-1 .2-1.4.5-.4.4-.7.8-.8 1.4-.1.3-.1.5-.1.7v1.6c0 .7.2 1.3.6 1.8s1 .7 1.7.7c.8 0 1.4-.3 1.9-.9.4-.8.6-1.6.6-2.6zM75.7 26.6c0 1.6-.4 2.9-1.3 3.9-.8.8-1.8 1.3-2.9 1.3-1.3 0-2.2-.5-2.7-1.4v5.1h-2.1V25.1c0-1 0-2.1-.1-3.2h1.9l.1 1.5c.7-1.1 1.8-1.7 3.2-1.7 1.1 0 2.1.4 2.8 1.3.7.9 1.1 2.1 1.1 3.6zm-2.2.1c0-.9-.2-1.7-.6-2.3-.5-.6-1.1-.9-1.9-.9-.5 0-1 .2-1.4.5-.4.4-.7.8-.8 1.4-.1.3-.1.5-.1.7v1.6c0 .7.2 1.3.6 1.8s1 .7 1.7.7c.8 0 1.4-.3 1.9-.9.4-.8.6-1.6.6-2.6zM88 27.8c0 1.1-.4 2.1-1.2 2.8-.9.8-2.1 1.2-3.6 1.2-1.4 0-2.6-.3-3.4-.8l.5-1.8c.9.6 2 .8 3.1.8.8 0 1.4-.2 1.9-.5.4-.4.7-.8.7-1.5 0-.5-.2-1-.6-1.4s-1-.7-1.8-1c-2.3-.9-3.5-2.1-3.5-3.8 0-1.1.4-2 1.2-2.7.8-.7 1.9-1 3.3-1 1.2 0 2.2.2 3 .6l-.6 1.7c-.8-.4-1.6-.6-2.5-.6-.8 0-1.3.2-1.8.6-.4.3-.5.7-.5 1.2s.2 1 .6 1.3c.4.3 1 .7 1.9 1 1.1.5 2 1 2.5 1.6.6.6.8 1.4.8 2.3zM95.1 23.5h-2.3v4.7c0 1.2.4 1.8 1.2 1.8.4 0 .7 0 .9-.1l.1 1.6c-.4.2-1 .2-1.7.2-.8 0-1.5-.3-2-.8s-.7-1.4-.7-2.6v-4.8h-1.4v-1.6h1.4v-1.8l2.1-.6v2.4H95c.1 0 .1 1.6.1 1.6zM105.7 26.6c0 1.5-.4 2.7-1.3 3.6-.9 1-2.1 1.5-3.5 1.5s-2.5-.5-3.4-1.4-1.3-2.1-1.3-3.5c0-1.5.4-2.7 1.3-3.7.9-.9 2-1.4 3.5-1.4 1.4 0 2.5.5 3.4 1.4.9.9 1.3 2.1 1.3 3.5zm-2.2.1c0-.9-.2-1.6-.6-2.3-.4-.8-1.1-1.1-1.9-1.1-.9 0-1.5.4-2 1.1-.4.6-.6 1.4-.6 2.3 0 .9.2 1.6.6 2.3.5.8 1.1 1.1 1.9 1.1s1.5-.4 1.9-1.2c.5-.6.7-1.3.7-2.2zM112.6 23.8c-.2 0-.4-.1-.7-.1-.8 0-1.3.3-1.7.9-.4.5-.5 1.1-.5 1.9v5h-2.1v-6.6c0-1.1 0-2.1-.1-3h1.9l.1 1.8h.1c.2-.6.6-1.1 1.1-1.5.5-.3 1-.5 1.5-.5h.5c-.1.1-.1 2.1-.1 2.1zM122.2 26.3c0 .4 0 .7-.1 1h-6.4c0 .9.3 1.7.9 2.2.5.4 1.2.7 2.1.7.9 0 1.8-.2 2.6-.5l.3 1.5c-.9.4-2 .6-3.2.6-1.5 0-2.7-.4-3.5-1.3-.8-.9-1.3-2.1-1.3-3.5s.4-2.7 1.2-3.6c.8-1 1.9-1.5 3.4-1.5 1.4 0 2.4.5 3.1 1.5.6.6.9 1.7.9 2.9zm-2.1-.6c0-.6-.1-1.2-.4-1.6-.4-.6-.9-.9-1.7-.9-.7 0-1.3.3-1.7.9-.4.5-.6 1-.6 1.7l4.4-.1z"/><g><path class="st1" d="M43.4 7.3c.2-.1.5-.2.8-.3.3-.1.6-.1 1-.1.6 0 1.1.1 1.5.4s.5.7.5 1.2c0 .4-.1.7-.4 1-.2.3-.6.5-.9.5.2 0 .4.1.6.2.2.1.3.2.5.3.1.1.2.3.3.5s.1.4.1.6c0 .4-.1.7-.2.9s-.3.4-.6.6c-.2.2-.5.3-.8.3-.3.1-.6.1-.9.1-.3 0-.6 0-.9-.1s-.6-.2-.8-.3l.3-.8c.2.1.4.2.7.2.3.1.5.1.8.1.4 0 .8-.1 1-.3.2-.2.4-.5.4-.8 0-.2 0-.4-.1-.6-.1-.1-.2-.3-.4-.3-.2-.1-.3-.1-.5-.2s-.4 0-.6 0h-.4v-.8h.4c.2 0 .4 0 .6-.1.2-.1.3-.1.4-.2l.3-.3c.1-.1.1-.3.1-.4 0-.3-.1-.5-.3-.7s-.5-.2-.8-.2c-.2 0-.5 0-.7.1s-.5.2-.6.3l-.4-.8zM51.8 13.4l-.1-.5c-.3.4-.8.6-1.4.6-.2 0-.4 0-.6-.1s-.3-.2-.5-.3c-.1-.1-.2-.3-.3-.4-.1-.2-.1-.4-.1-.6 0-.6.2-1 .7-1.3s1.2-.4 2-.4v-.1c0-.6-.3-.9-1-.9-.5 0-.9.1-1.2.3l-.1-.7c.4-.3 1-.4 1.6-.4 1.2 0 1.8.6 1.8 2v1.7c0 .5 0 .9.1 1.1h-.9zm-.2-2.3c-.6 0-1 .1-1.3.2s-.4.4-.4.7c0 .2.1.4.2.6s.3.2.5.2c.1 0 .3 0 .4-.1.1 0 .2-.1.3-.2s.2-.2.2-.3c.1-.1.1-.2.1-.4v-.7zM57.7 8.7v.9h-2v3.9h-1V8.8l3-.1zM63.7 11c0 .4-.1.7-.2 1s-.2.6-.4.8c-.2.2-.4.4-.7.5-.3.1-.5.2-.8.2-.6 0-1.1-.2-1.3-.7v2.5h-1v-5.1-.8-.8h.9l.1.7c.3-.6.9-.8 1.6-.8.3 0 .5.1.8.2.2.1.4.3.6.5s.3.5.4.8c-.1.3 0 .7 0 1zm-1.1.1c0-.2 0-.4-.1-.6s-.1-.4-.2-.5-.2-.2-.4-.3c-.2-.1-.3-.1-.5-.1-.1 0-.3 0-.4.1s-.3.2-.4.3c-.1.1-.2.2-.3.4s-.1.3-.1.5v.8c0 .2 0 .3.1.5.1.1.1.3.2.4s.2.2.4.3c.1.1.3.1.5.1.4 0 .7-.1.9-.5.2-.5.3-.9.3-1.4zM69.3 8.7L68.1 12c-.3.8-.6 1.4-.8 1.9-.3.5-.5.9-.8 1.1-.4.3-.7.5-1.2.6l-.3-.9c.3-.1.5-.2.8-.4.2-.2.4-.5.6-.8.1-.1.1-.2.1-.2s0-.1-.1-.2l-1.7-4.3h1.2l.9 2.6c0 .1.1.3.1.4 0 .2.1.3.1.5 0-.1.1-.2.1-.4s.1-.3.2-.5l.8-2.6 1.2-.1zM71.1 10.7h.5c.4 0 .6-.1.8-.2.2-.1.3-.3.3-.5s-.1-.3-.2-.5c-.2-.1-.4-.2-.7-.2-.2 0-.4 0-.6.1s-.4.1-.5.2l-.3-.6c.3-.1.5-.2.8-.3.3-.1.5-.1.8-.1.2 0 .4 0 .6.1.2 0 .4.1.6.2s.3.2.4.4c.1.2.2.4.2.6 0 .1 0 .3-.1.4s-.1.2-.2.3c-.1.1-.2.2-.3.2-.1.1-.2.1-.4.1.2 0 .3.1.5.1.1.1.3.1.4.2l.3.3c.1.1.1.3.1.5 0 .3-.1.5-.2.7s-.3.3-.5.4-.4.2-.7.2c-.3 0-.5.1-.7.1-.3 0-.6 0-.9-.1s-.5-.2-.8-.3l.3-.7c.2.1.4.2.6.2s.4.1.7.1c.4 0 .6-.1.8-.2.2-.1.3-.3.3-.5 0-.1 0-.2-.1-.3s-.2-.2-.3-.2c-.1-.1-.3-.1-.4-.1h-1v-.6h-.1zM76.7 8.7v3.7c.1-.2.2-.5.4-.7.1-.2.2-.5.4-.7l1.2-2.2h1.4v4.7h-1v-1.7-1c0-.4 0-.7.1-1.1-.1.3-.2.5-.3.8-.1.2-.2.4-.3.7l-.6 1.2-.6 1.2H76V8.9h.7v-.2zM85.4 8.7v.9H84v3.9h-1V9.6h-1.4v-.9h3.8zM90.8 10.9v.5h-3.1c0 .4.2.8.4 1s.6.4 1.1.4.9-.1 1.3-.2l.2.7c-.4.2-1 .3-1.6.3-.4 0-.7-.1-1-.2s-.5-.3-.7-.5-.4-.5-.5-.7c-.1-.3-.2-.6-.2-1s.1-.7.2-1 .3-.6.5-.8c.2-.2.4-.4.7-.5.3-.1.6-.2.9-.2s.6.1.8.2c.2.1.4.3.6.5s.3.4.4.7c-.1.1 0 .4 0 .8zm-1-.3c0-.4-.1-.7-.3-.9s-.4-.3-.8-.3c-.3 0-.6.1-.8.3-.2.2-.3.5-.4.9h2.3zM95 8.8c.2 0 .4-.1.7-.1h1.6c.2 0 .5.1.7.2s.4.2.6.4.2.4.2.7c0 .1 0 .3-.1.4s-.1.2-.2.3-.2.2-.3.2c-.1.1-.2.1-.4.1.3.1.6.2.8.4s.3.4.3.8c0 .3-.1.6-.3.8-.2.2-.4.3-.7.4s-.5.2-.8.2h-2.2V8.8h.1zm1 1.8h1c.1 0 .3-.1.4-.1s.2-.1.3-.2c.1-.1.1-.2.1-.3 0-.2-.1-.4-.3-.5-.2-.1-.5-.2-.8-.2h-.6c-.1.1-.1 1.3-.1 1.3zm0 2.1h1c.1 0 .3-.1.4-.1.1-.1.2-.1.3-.2.1-.1.1-.2.1-.4 0-.3-.1-.5-.4-.6-.2-.1-.6-.2-1-.2H96v1.5z"/></g></svg>